<?xml version="1.0" encoding="UTF-8"?>
<!DOCTYPE svg PUBLIC "-//W3C//DTD SVG 1.1//EN" "http://www.w3.org/Graphics/SVG/1.1/DTD/svg11.dtd">
<!-- Creator: CorelDRAW -->
<svg xmlns="http://www.w3.org/2000/svg" xml:space="preserve" width="2048px" height="2048px" style="shape-rendering:geometricPrecision; text-rendering:geometricPrecision; image-rendering:optimizeQuality; fill-rule:evenodd; clip-rule:evenodd"
viewBox="0 0 2048 2048"
 xmlns:xlink="http://www.w3.org/1999/xlink">
 <defs>
  <style type="text/css">
   <![CDATA[
    .fil4 {fill:none}
    .fil1 {fill:#FFFFFF}
    .fil0 {fill:#FF6600}
    .fil2 {fill:#FFFFFF;fill-rule:nonzero}
    .fil3 {fill:#FFFFFF;fill-rule:nonzero}
   ]]>
  </style>
 </defs>
 <g id="Layer_x0020_1">
  <metadata id="CorelCorpID_0Corel-Layer"/>
  <polygon class="fil0" points="1615.88,1408 1615.88,1408 1615.88,1632 1615.88,1632 "/>
  <polygon class="fil0" points="1487.88,1408 1487.88,1408 1487.88,1632 1487.88,1632 "/>
  <polygon class="fil0" points="1359.88,1408 1359.88,1408 1359.88,1632 1359.88,1632 "/>
  <polygon class="fil0" points="1231.88,1408 1231.88,1408 1231.88,1632 1231.88,1632 "/>
  <polygon class="fil0" points="1103.88,1408 1103.88,1408 1103.88,1632 1103.88,1632 "/>
  <polygon class="fil0" points="975.882,1408 975.879,1408 975.879,1632 975.882,1632 "/>
  <polygon class="fil0" points="847.882,1408 847.88,1408 847.88,1632 847.882,1632 "/>
  <polygon class="fil0" points="719.884,1408 719.881,1408 719.881,1632 719.884,1632 "/>
  <path class="fil1" d="M571.522 1232l1192.72 0c17.6728,0 32.0008,14.328 32.0008,32.0008l0 512.001c0,17.6728 -14.328,32.0008 -32.0008,32.0008l-1192.72 0c-17.6728,0 -32.0008,-14.328 -32.0008,-32.0008l0 -512.001c0,-17.6728 14.328,-32.0008 32.0008,-32.0008zm180.362 144l0 288 -64.0016 0 0 -288 64.0016 0zm127.999 0l0 288 -64.0016 0 0 -288 64.0016 0zm128 0l0 288 -64.0016 0 0 -288 64.0016 0zm128 0l0 288 -64.0016 0 0 -288 64.0016 0zm128 0l0 288 -64.0016 0 0 -288 64.0016 0zm128 0l0 288 -64.0016 0 0 -288 64.0016 0zm128 0l0 288 -64.0016 0 0 -288 64.0016 0zm128 0l0 288 -64.0016 0 0 -288 64.0016 0z"/>
  <path class="fil2" d="M370.716 1072l201.046 0c17.6728,0 32.0008,14.328 32.0008,32.0008l0 672.002c0,17.6728 -14.328,32.0008 -32.0008,32.0008l-201.046 0c-17.6728,0 -32.0008,-14.328 -32.0008,-32.0008l0 -672.002c0,-17.6728 14.328,-32.0008 32.0008,-32.0008z"/>
  <path class="fil2" d="M554.397 1040l-166.315 0c-17.6728,0 -32.0008,-14.328 -32.0008,-32.0008l0 -414.715c0,-17.6728 14.328,-32.0008 32.0008,-32.0008l166.315 0c17.6728,0 32.0008,14.328 32.0008,32.0008l0 414.715c0,17.6728 -14.328,32.0008 -32.0008,32.0008z"/>
  <path class="fil2" d="M497.379 262.847l86.7414 222.872 0.0980316 -0.0377953c6.40985,16.4693 -1.74567,35.0185 -18.215,41.4284 -4.02402,1.56614 -8.17205,2.26063 -12.2362,2.17914l-165.685 0c-17.6728,0 -32.0008,-14.328 -32.0008,-32.0008 0,-4.60985 0.976772,-8.99174 2.73189,-12.952l77.778 -222.833 30.1252 10.5 -30.2126 -10.5461c5.82402,-16.6854 24.0732,-25.4906 40.7587,-19.6666 10.0736,3.51614 17.2736,11.5618 20.1166,21.0567z"/>
  <path class="fil2" d="M626.717 1136l-310.283 0c-13.6524,0.291733 -26.4874,-8.24646 -31.0311,-21.8811l30.3579 -10.1197 -30.2504 10.0004 -31.0063 -93.0213c-1.76339,-3.96733 -2.7437,-8.35867 -2.7437,-12.9791 0,-17.6728 14.328,-32.0008 32.0008,-32.0008l374.379 0c3.53859,-0.0637796 7.14804,0.46063 10.6961,1.64291 16.7658,5.5878 25.826,23.7118 20.2382,40.4776l-0.132284 -0.0437008 -31.0323 93.0957c-3.2563,14.2205 -15.9862,24.8292 -31.1929,24.8292z"/>
  <path class="fil2" d="M603.263 625.289l-263.496 0c-14.1721,0.251575 -27.2977,-9.00473 -31.3394,-23.2855l30.7902 -8.71536 -30.75 8.6256 -26.5736 -93.8859c-1.19646,-3.35788 -1.84961,-6.97205 -1.84961,-10.7398 0,-17.6728 14.328,-32.0008 32.0008,-32.0008l317.821 0c3.06378,-0.0531496 6.18544,0.333071 9.28465,1.21063 17.0043,4.813 26.8878,22.5012 22.0748,39.5055l-0.0602363 -0.0177165 -26.602 93.9827c-3.07323,14.4662 -15.9189,25.3205 -31.3004,25.3205z"/>
  <path class="fil3" d="M736 1200l0 -80.0008c0,-17.6728 14.328,-32.0008 32.0008,-32.0008l928.241 0c17.6728,0 32.0008,14.328 32.0008,32.0008l0 80.0008 -992.242 0z"/>
  <path class="fil3" d="M1261.09 626.683c-5.263,-11.4378 -16.4717,-18.463 -28.9642,-18.5646l-0.435827 0.00354331c-12.2492,0.154725 -23.4236,7.40434 -28.5284,18.561 -41.1414,86.3965 -113.661,119.371 -196.553,155.506 -129.617,56.5052 -245.032,106.821 -185.347,345.564 4.28032,17.1201 21.6307,27.5303 38.7508,23.25 17.1201,-4.28032 27.5303,-21.6307 23.25,-38.7508 -1.69961,-6.79961 -3.19252,-13.3819 -4.52953,-19.7988l706.786 0c-1.33701,6.41693 -2.82992,12.9992 -4.52953,19.7988 -4.28032,17.1201 6.12993,34.4705 23.25,38.7508 17.1201,4.28032 34.4705,-6.12993 38.7508,-23.25 59.6847,-238.742 -55.7304,-289.058 -185.347,-345.564 -81.9745,-35.7366 -155.974,-69.8398 -196.553,-155.506z"/>
 </g>
 <rect class="fil4" width="2048" height="2048"/>
</svg>
